<svg width="20" height="20" viewBox="0 0 20 20" fill="none" xmlns="http://www.w3.org/2000/svg">
<path d="M4.08652 17.0982L9.13356 15.019C9.25994 14.9334 9.38632 14.8478 9.47194 14.7662L17.7845 4.63138C18.0372 4.24816 17.9965 3.74264 17.6581 3.44504L13.7118 0.17954C13.3856 -0.0609899 12.8842 -0.0976808 12.5662 0.30592L4.2129 10.4367C4.12728 10.5631 4.08652 10.6895 4.04167 10.8199L2.98171 16.2053C2.92871 17.1267 3.66661 17.2857 4.08652 17.0982ZM13.2878 1.99778L15.9581 4.20332L8.71366 13.054L6.06783 10.8648L13.2878 1.99778ZM5.41147 12.5118L7.22156 14.012L4.88964 14.9742L5.41147 12.5118Z" fill="black"/>
<path d="M19.0972 18.2845H4.84888C4.84888 18.2845 1.89321 18.4231 1.78314 17.6648C1.78314 17.624 1.70976 17.4365 2.09298 16.9718C2.39058 16.5885 2.34574 16.083 2.00736 15.7854C1.62415 15.4878 1.11863 15.5327 0.821023 15.871C0.013822 16.8454 -0.19817 17.6934 0.185046 18.4598C1.22462 20.3963 4.7225 19.9397 4.88964 19.9804H19.0972C19.562 19.9804 19.9452 19.5972 19.9452 19.1325C19.9492 18.6636 19.566 18.2845 19.0972 18.2845Z" fill="black"/>
</svg>
