<svg width="17" height="20" viewBox="0 0 17 20" fill="none" xmlns="http://www.w3.org/2000/svg">
<path d="M13.5304 9.81401L13.8176 6.36835H14.3201C14.7003 6.36835 15.0086 6.06007 15.0086 5.67987V4.42343C15.0086 3.23852 14.0445 2.27448 12.8596 2.27448H10.4647V1.95643C10.4647 0.877576 9.58701 0 8.50828 0H6.5002C5.42141 0 4.54384 0.877576 4.54384 1.95636V2.27441H2.14896C0.964041 2.27441 0 3.23845 0 4.42337V5.6798C0 6.06 0.308283 6.36828 0.688485 6.36828H1.19098L2.12646 17.596C2.23879 18.944 3.38647 20 4.73919 20H10.2691C11.6057 20 12.7415 18.9688 12.8767 17.6437C14.7396 17.2595 16.1445 15.6066 16.1445 13.6316C16.1446 11.8956 15.0585 10.4094 13.5304 9.81401ZM5.92081 1.95636C5.92081 1.6369 6.18074 1.37697 6.5002 1.37697H8.50828C8.82781 1.37697 9.08775 1.6369 9.08775 1.95636V2.27441H5.92081V1.95636V1.95636ZM1.37684 4.99145V4.42343C1.37684 3.99771 1.72317 3.65138 2.14889 3.65138H12.8595C13.2853 3.65138 13.6316 3.99771 13.6316 4.42343V4.99145H1.37684ZM10.2692 18.623H4.73926C4.09697 18.623 3.55205 18.1217 3.49872 17.4816L2.57259 6.36835H12.4358L12.1717 9.53845C12.1305 9.53724 12.0895 9.53529 12.0481 9.53529C9.78929 9.53529 7.95172 11.3729 7.95172 13.6316C7.95172 15.6954 9.48606 17.4067 11.4738 17.6869C11.3343 18.2256 10.8409 18.623 10.2692 18.623ZM12.0481 16.3511C10.5486 16.3511 9.32862 15.1312 9.32862 13.6316C9.32862 12.1321 10.5486 10.9122 12.0481 10.9122C13.5476 10.9122 14.7675 12.1321 14.7675 13.6316C14.7675 15.1312 13.5476 16.3511 12.0481 16.3511Z" fill="black"/>
<path d="M13.0219 13.6317L13.6711 12.9826C13.9398 12.7137 13.9398 12.2777 13.671 12.0089C13.402 11.7401 12.9662 11.7401 12.6973 12.0089L12.0481 12.6581L11.399 12.0089C11.13 11.7401 10.6943 11.7401 10.4253 12.0089C10.1564 12.2778 10.1564 12.7137 10.4253 12.9826L11.0745 13.6317L10.4253 14.2809C10.1564 14.5498 10.1564 14.9857 10.4253 15.2546C10.5598 15.389 10.7359 15.4562 10.9122 15.4562C11.0884 15.4562 11.2646 15.389 11.399 15.2546L12.0482 14.6054L12.6974 15.2546C12.8318 15.389 13.008 15.4562 13.1842 15.4562C13.3605 15.4562 13.5366 15.389 13.6711 15.2546C13.94 14.9857 13.94 14.5498 13.6711 14.2809L13.0219 13.6317Z" fill="black"/>
</svg>
